<svg xmlns="http://www.w3.org/2000/svg" width="228.581" height="58.356" viewBox="0 0 228.581 58.356">
  <g id="Logo-purple" transform="translate(0.001 -143)">
    <g id="Group_5" data-name="Group 5" transform="translate(-0.001 149.424)">
      <path id="Path_41" data-name="Path 41" d="M33.038,205.07a7.63,7.63,0,0,1-1.684,5.182,6.758,6.758,0,0,1-5.135,2.481A6.653,6.653,0,0,1,21,210.845a7.759,7.759,0,0,1-2.318-5.35c-.005-.147-.016-.288-.016-.425H16.186q0,.275.016.566a10.128,10.128,0,0,0,3.126,7.081,9.04,9.04,0,0,0,7.033,2.5q8.56-.488,9.147-10.144Zm16.327,0q-.952,10.589-6.572,16.569-5.767,6.152-15.488,6.7a22.874,22.874,0,0,1-17.166-5.68,22.523,22.523,0,0,1-7.61-16.243c-.026-.451-.042-.9-.042-1.343H0c.005.488.021.986.047,1.484a24.952,24.952,0,0,0,8.418,17.979q7.789,6.915,18.981,6.283a27.114,27.114,0,0,0,10.38-2.539,21.971,21.971,0,0,0,7.747-6.289,29.344,29.344,0,0,0,4.93-10.233,45.343,45.343,0,0,0,1.448-6.687Z" transform="translate(0.001 -178.939)" fill="#fff"/>
      <path id="Path_42" data-name="Path 42" d="M51.95,181.379H49.364c.021-.194.037-.388.052-.582l-13.894.388c-.005.063-.005.131-.016.194h-2.47c0-.11,0-.215-.01-.325a8.538,8.538,0,0,0-2.3-5.586,6.344,6.344,0,0,0-5.192-2.056,6.818,6.818,0,0,0-5.1,2.544,7.932,7.932,0,0,0-1.768,5.423H0a25.942,25.942,0,0,1,2.748-11.916,24.815,24.815,0,0,1,8.979-9.992A26.648,26.648,0,0,1,24.839,155.3a26.451,26.451,0,0,1,9.373,1.08,22.392,22.392,0,0,1,8.056,4.484A29.688,29.688,0,0,1,48.84,169.4q2.927,5.413,3.068,7.894c.016.267-.152.435-.509.5l-6.137.818a1.675,1.675,0,0,0-.336.052c-.089.031-.11.052-.063.073a.316.316,0,0,0,.136.026l.267-.016,6.042-.142c.493-.026.745.047.755.226A14.314,14.314,0,0,1,51.95,181.379Z" transform="translate(0.001 -155.247)" fill="#fff"/>
      <path id="Path_43" data-name="Path 43" d="M136.171,208.757a25.933,25.933,0,0,0-.462-3.687h-2.554a22.608,22.608,0,0,1,.535,3.829l.85,15.016-11.528.656-.808-14.214a5.7,5.7,0,0,0-1.458-3.782,3.94,3.94,0,0,0-3.2-1.264,4.322,4.322,0,0,0-3.074,1.521,4.374,4.374,0,0,0-1.154,3.294,4.151,4.151,0,0,0,1.343,2.948,4.249,4.249,0,0,0,3.252,1.028,5.663,5.663,0,0,0,2.706-.9l.671,11.864a13.51,13.51,0,0,1-2.6.42,15.856,15.856,0,0,1-11.822-3.939,15.3,15.3,0,0,1-5.3-11.093,16.24,16.24,0,0,1,.556-5.386h-2.56a18.622,18.622,0,0,0-.477,5.528,17.729,17.729,0,0,0,6.105,12.829,18.239,18.239,0,0,0,13.642,4.537,16.1,16.1,0,0,0,3.787-.75,8.14,8.14,0,0,1,1.872-.241l12.666-.719-.991-17.5Zm-17.119,2.318a3.389,3.389,0,0,1-1.684.5q-1.479.087-1.573-1.657a2.036,2.036,0,0,1,.519-1.474,1.875,1.875,0,0,1,1.374-.719,1.548,1.548,0,0,1,1.421.761,3.017,3.017,0,0,1,.587,1.479A1.2,1.2,0,0,1,119.051,211.075Z" transform="translate(-47.101 -178.939)" fill="#fff"/>
      <path id="Path_44" data-name="Path 44" d="M193.99,206.15c.8-.042,2.266.477,4.39,1.568l-.152-2.649h-7.369a8.172,8.172,0,0,0-.262,2.89l.839,14.812-11.528.656-.965-17.025c-.026-.451-.037-.9-.037-1.332H176.42c0,.483.016.97.042,1.474l1.107,19.506,16.49-.939-.981-17.292c-.063-1.075.241-1.626.913-1.668Z" transform="translate(-83.889 -178.939)" fill="#fff"/>
      <path id="Path_45" data-name="Path 45" d="M238.271,208.311l.876,15.415,17.424-.991-1-17.665h-2.486l.871,15.326-12.467.708-.913-16.034h-2.15l.016.273-3.488.194.9,15.887-12.467.708-.97-17.062H219.93l1.117,19.684,17.429-.991-.9-15.887.4-.021Q238.24,207.839,238.271,208.311Z" transform="translate(-104.579 -178.939)" fill="#fff"/>
      <path id="Path_46" data-name="Path 46" d="M315.79,205.07h-1.883l.052.965a.3.3,0,0,1-.32.351c-.178.01-.273-.094-.283-.32l-.058-1h-1.883l.063,1.107c.1,1.741.86,2.57,2.292,2.491q2.211-.126,2.066-2.738Zm13.962,0h-2.481q.134,6.522-3.094,10.437-3.454,4.2-9.755,4.553a12.913,12.913,0,0,1-9.923-3.6,14.088,14.088,0,0,1-4.563-9.9l-.084-1.49H297.36l.094,1.631a16.453,16.453,0,0,0,5.4,11.633,15.371,15.371,0,0,0,11.7,4.206q7.38-.417,11.5-5.324,3.855-4.587,3.692-12.147Z" transform="translate(-141.398 -178.939)" fill="#fff"/>
      <path id="Path_47" data-name="Path 47" d="M399.708,205.07a15.359,15.359,0,0,1-3.8,7.537,15.845,15.845,0,0,1-11.334,5.318,14.976,14.976,0,0,1-11.56-4.117,16.222,16.222,0,0,1-4.794-8.738H365.69a18.651,18.651,0,0,0,5.649,10.61,17.354,17.354,0,0,0,13.38,4.72,18.222,18.222,0,0,0,13.034-6.152,17.689,17.689,0,0,0,4.479-9.179Zm-15.64,1.516a4.337,4.337,0,0,0,3.11-1.484c.01-.01.016-.021.026-.031h-6.661a3.78,3.78,0,0,0,3.525,1.516Z" transform="translate(-173.889 -178.939)" fill="#fff"/>
    </g>
    <path id="Path_48" data-name="Path 48" d="M81.609,203.96c-.016.194-.031.388-.052.582H67.7c.01-.063.01-.131.016-.194Z" transform="translate(-32.193 -28.987)" fill="#fff"/>
    <path id="Path_49" data-name="Path 49" d="M198.228,190.338H176.42a16.323,16.323,0,0,1,3.666-11.04q4.067-4.736,11.712-5.166a30.246,30.246,0,0,1,5.528.22Z" transform="translate(-83.89 -14.783)" fill="#fff"/>
    <path id="Path_50" data-name="Path 50" d="M136.172,192.314H100.03A18.723,18.723,0,0,1,117,178.289q8.646-.488,13.888,4.254A17.262,17.262,0,0,1,136.172,192.314Z" transform="translate(-47.566 -16.759)" fill="#fff"/>
    <path id="Path_51" data-name="Path 51" d="M239.393,181.794H223.386l-1.416-24.966,12.467-.708.855,15.084,3.488-.2Z" transform="translate(-105.55 -6.239)" fill="#fff"/>
    <path id="Path_52" data-name="Path 52" d="M254.161,178.489h-2.486l-1.521-26.7-12.467.708,1.479,25.994h-2.15L236.4,167.7l-3.488.2-.855-15.084-12.467.708,1.416,24.966h-2.486l-1.552-27.3L234.4,150.2l.855,15.079.336-.021a.29.29,0,0,0,.315-.351l-.834-14.743,17.424-.991Z" transform="translate(-103.172 -2.934)" fill="#fff"/>
    <path id="Path_53" data-name="Path 53" d="M270.458,180.862H257.949l-1.479-25.994,12.467-.708Z" transform="translate(-121.955 -5.307)" fill="#fff"/>
    <path id="Path_54" data-name="Path 54" d="M312.852,190.03H301.287L300.38,174.1l11.528-.656Z" transform="translate(-142.835 -14.475)" fill="#fff"/>
    <path id="Path_55" data-name="Path 55" d="M312.362,187.7H310.48l-.944-16.59-11.528.656.907,15.934h-2.491l-1.033-18.273,15.546-.886c.226-.01.346.115.362.388Z" transform="translate(-140.462 -12.144)" fill="#fff"/>
    <path id="Path_56" data-name="Path 56" d="M343.784,186.839H341.3c-.005-.3-.021-.619-.037-.934l-.944-16.553-11.46.65.96,16.836h-1.883l-1.07-18.808c-.016-.267.131-.409.446-.43l15.347-.871,1.08,19.034c.021.362.031.724.042,1.075Z" transform="translate(-155.43 -11.284)" fill="#fff"/>
    <path id="Path_57" data-name="Path 57" d="M343.111,189.216H331.63l-.96-16.836,11.46-.65.944,16.553C343.09,188.6,343.106,188.912,343.111,189.216Z" transform="translate(-157.238 -13.661)" fill="#fff"/>
    <path id="Path_58" data-name="Path 58" d="M381.114,177.933h-12.32a22.244,22.244,0,0,1-.435-3.341L366.89,148.65l11.528-.65,1.448,25.537a8.2,8.2,0,0,0,1.248,4.4Z" transform="translate(-174.461 -2.378)" fill="#fff"/>
    <path id="Path_59" data-name="Path 59" d="M412.889,187.684h-12.5a4.254,4.254,0,0,0,1.107-3.163,4.334,4.334,0,0,0-1.353-3.084,3.849,3.849,0,0,0-2.916-1.044,5.493,5.493,0,0,0-3.089,1.254l-.724-12.735q2-.315,3.073-.378a15.138,15.138,0,0,1,11.355,4.06,15.435,15.435,0,0,1,5.3,11A16.668,16.668,0,0,1,412.889,187.684Z" transform="translate(-187.072 -12.129)" fill="#fff"/>
    <path id="Path_60" data-name="Path 60" d="M400.629,171.322a17.785,17.785,0,0,0-6.137-12.729,17.55,17.55,0,0,0-13.138-4.668,10.188,10.188,0,0,1-1.983.01.464.464,0,0,1-.4-.477L378.38,143l-16.49.939,1.615,28.417a25.556,25.556,0,0,0,.378,3.2h2.533a22.248,22.248,0,0,1-.435-3.341l-1.469-25.941,11.528-.65,1.448,25.537a8.2,8.2,0,0,0,1.248,4.4H385.4a4.254,4.254,0,0,0,1.107-3.163,4.334,4.334,0,0,0-1.353-3.084,3.849,3.849,0,0,0-2.916-1.044,5.493,5.493,0,0,0-3.089,1.254l-.724-12.735q2-.315,3.074-.378a15.138,15.138,0,0,1,11.355,4.06,15.436,15.436,0,0,1,5.3,11,16.667,16.667,0,0,1-.247,4.091h2.523a19.43,19.43,0,0,0,.2-4.233Zm-19.836-.016a2.528,2.528,0,0,1,1.248-.477,1.847,1.847,0,0,1,1.374.462,1.77,1.77,0,0,1,.608,1.243,1.875,1.875,0,0,1-.493,1.406,1.964,1.964,0,0,1-1.411.656,1.6,1.6,0,0,1-1.343-.566,2.281,2.281,0,0,1-.582-1.411,1.383,1.383,0,0,1,.6-1.311Z" transform="translate(-172.083)" fill="#fff"/>
  </g>
</svg>
